<svg viewBox="0 0 16 16" xmlns="http://www.w3.org/2000/svg"><path d="m11 3v-3h-9v16h12v-13z" fill="#5ebb47"/><path d="m11.44286 5.71608-2.85715-1.6996a1.15613 1.15613 0 0 0 -1.17142 0l-2.85715 1.6996a1.13938 1.13938 0 0 0 -.55714.97731v3.47012a1.15714 1.15714 0 0 0 .55714.97714l2.85715 1.69966a1.15618 1.15618 0 0 0 1.17142 0l2.85715-1.69966a1.1393 1.1393 0 0 0 .55714-.97714v-3.48429a1.11623 1.11623 0 0 0 -.55714-.96314zm-3.44286-.00195a.60711.60711 0 1 1 -.00006 0zm1.71429 5.25109a.14287.14287 0 0 1 -.06978.12274l-1.55714.92737a.14282.14282 0 0 1 -.14571 0l-1.58572-.936a.14289.14289 0 0 1 -.07023-.123v-.82337a.14287.14287 0 0 1 .21589-.12275l.927.51355v-1.96l-.5016-.3196a.14289.14289 0 0 1 -.06983-.123v-.82623a.14285.14285 0 0 1 .21617-.12262l1.42858.79034a.14287.14287 0 0 1 .06954.12257v2.43846l.927-.51349a.14286.14286 0 0 1 .21589.12269z" fill="#fff"/><path d="m11 0 3 3h-3z" fill="#448136"/></svg>