<svg viewBox="0 0 16 16" xmlns="http://www.w3.org/2000/svg"><path d="m11 3v-3h-9v16h12v-13z" fill="#a6afb7"/><path d="m10.04891 5.53672a4.02962 4.02962 0 0 0 -2.26481-.53951 3.54922 3.54922 0 0 0 -1.74672.37965 2.1058 2.1058 0 0 0 -1.00658 2.08814h1.77632a1.2702 1.2702 0 0 1 .16288-.82927 1.07683 1.07683 0 0 1 .93257-.44959 1.15683 1.15683 0 0 1 .94737.34968.95512.95512 0 0 1 .26645.69937.9735.9735 0 0 1 -.296.60945 1.43578 1.43578 0 0 1 -.35527.29973 4.60941 4.60941 0 0 0 -1.30263.92917 2.17721 2.17721 0 0 0 -.35527 1.24887c-.00863.05487.05027.10407.13157.1099a.21743.21743 0 0 0 .03126 0h1.48017c.08992.00025.16313-.04875.1635-.10944l-.00067-.01045a2.738 2.738 0 0 1 .074-.56949 1.1084 1.1084 0 0 1 .45888-.52952l.47369-.27975a5.06451 5.06451 0 0 0 .93257-.68938 1.64186 1.64186 0 0 0 .44408-1.099 1.80885 1.80885 0 0 0 -.94736-1.60856zm-2.38323 5.6649a.993.993 0 0 0 -1.11021.87921c-.1014.43609.34017.8451.98628.91354q.03224.00342.06472.00563c.62171 0 1.1102-.31971 1.125-.85923.10943-.4408-.33131-.858-.9844-.93187q-.0405-.00457-.08139-.00728z" fill="#fff"/><path d="m11 0 3 3h-3z" fill="#747a80"/></svg>